<svg width="222" height="155" viewBox="0 0 222 155" fill="none" xmlns="http://www.w3.org/2000/svg">
<g filter="url(#filter0_d_108_80)">
<path fill-rule="evenodd" clip-rule="evenodd" d="M166.5 51C177.822 51 187 41.8218 187 30.5C187 19.1782 177.822 10 166.5 10C155.178 10 146 19.1782 146 30.5C146 41.8218 155.178 51 166.5 51Z" fill="white"/>
</g>
<path d="M174 25.539C173.405 25.8 172.771 25.973 172.11 26.057C172.79 25.651 173.309 25.013 173.553 24.244C172.919 24.622 172.219 24.889 171.473 25.038C170.871 24.397 170.013 24 169.077 24C167.261 24 165.799 25.474 165.799 27.281C165.799 27.541 165.821 27.791 165.875 28.029C163.148 27.896 160.735 26.589 159.114 24.598C158.831 25.089 158.665 25.651 158.665 26.256C158.665 27.392 159.25 28.399 160.122 28.982C159.595 28.972 159.078 28.819 158.64 28.578C158.64 28.588 158.64 28.601 158.64 28.614C158.64 30.208 159.777 31.532 161.268 31.837C161.001 31.91 160.71 31.945 160.408 31.945C160.198 31.945 159.986 31.933 159.787 31.889C160.212 33.188 161.418 34.143 162.852 34.174C161.736 35.047 160.319 35.573 158.785 35.573C158.516 35.573 158.258 35.561 158 35.528C159.453 36.465 161.175 37 163.032 37C169.068 37 172.368 32 172.368 27.666C172.368 27.521 172.363 27.381 172.356 27.242C173.007 26.78 173.554 26.203 174 25.539Z" fill="#080809"/>
<g filter="url(#filter1_d_108_80)">
<path fill-rule="evenodd" clip-rule="evenodd" d="M30.5 49C41.8218 49 51 39.8218 51 28.5C51 17.1782 41.8218 8 30.5 8C19.1782 8 10 17.1782 10 28.5C10 39.8218 19.1782 49 30.5 49Z" fill="white"/>
</g>
<path fill-rule="evenodd" clip-rule="evenodd" d="M33.1084 26.2445C32.7883 26.1432 32.4202 26.0757 32.0842 26.0757C31.6681 26.0757 30.7719 26.3626 30.7719 26.9195V28.2527H32.9003V30.4971H30.7719V36.6905H28.6275V30.4971H27.5713V28.2527H28.6275V27.122C28.6275 25.4176 29.3636 24 31.14 24C31.7481 24 32.8363 24.0338 33.4284 24.2531L33.1084 26.2445Z" fill="#080809"/>
<g filter="url(#filter2_d_108_80)">
<path fill-rule="evenodd" clip-rule="evenodd" d="M98.5 53C110.926 53 121 42.9264 121 30.5C121 18.0736 110.926 8 98.5 8C86.0736 8 76 18.0736 76 30.5C76 42.9264 86.0736 53 98.5 53Z" fill="url(#paint0_angular_108_80)"/>
</g>
<g clip-path="url(#clip0_108_80)">
<path d="M104.656 22H93.3438C92.0516 22 91 23.0516 91 24.3438V35.6562C91 36.9487 92.0516 38 93.3438 38H104.656C105.949 38 107 36.9487 107 35.6562V24.3438C107 23.0516 105.949 22 104.656 22ZM106.062 35.6562C106.062 36.4316 105.432 37.0625 104.656 37.0625H93.3438C92.5684 37.0625 91.9375 36.4316 91.9375 35.6562V24.3438C91.9375 23.5684 92.5684 22.9375 93.3438 22.9375H104.656C105.432 22.9375 106.062 23.5684 106.062 24.3438V35.6562Z" fill="white"/>
<path d="M104.156 23.9062C103.639 23.9062 103.219 24.3269 103.219 24.8438C103.219 25.3606 103.639 25.7812 104.156 25.7812C104.673 25.7812 105.094 25.3606 105.094 24.8438C105.094 24.3269 104.673 23.9062 104.156 23.9062Z" fill="white"/>
<path d="M99 25.7812C96.6737 25.7812 94.7812 27.6737 94.7812 30C94.7812 32.3263 96.6737 34.2188 99 34.2188C101.326 34.2188 103.219 32.3263 103.219 30C103.219 27.6737 101.326 25.7812 99 25.7812ZM99 33.2812C97.1906 33.2812 95.7188 31.8094 95.7188 30C95.7188 28.1906 97.1906 26.7188 99 26.7188C100.809 26.7188 102.281 28.1906 102.281 30C102.281 31.8094 100.809 33.2812 99 33.2812Z" fill="white"/>
</g>
<path d="M16.04 85.1C17.52 85.1 18.8133 85.3867 19.92 85.96C21.04 86.52 21.9 87.3333 22.5 88.4C23.1133 89.4533 23.42 90.6867 23.42 92.1C23.42 93.5133 23.1133 94.74 22.5 95.78C21.9 96.82 21.04 97.62 19.92 98.18C18.8133 98.7267 17.52 99 16.04 99H11.5V85.1H16.04ZM16.04 97.14C17.6667 97.14 18.9133 96.7 19.78 95.82C20.6467 94.94 21.08 93.7 21.08 92.1C21.08 90.4867 20.6467 89.2267 19.78 88.32C18.9133 87.4133 17.6667 86.96 16.04 86.96H13.78V97.14H16.04ZM26.9397 86.52C26.5264 86.52 26.1797 86.38 25.8997 86.1C25.6197 85.82 25.4797 85.4733 25.4797 85.06C25.4797 84.6467 25.6197 84.3 25.8997 84.02C26.1797 83.74 26.5264 83.6 26.9397 83.6C27.3397 83.6 27.6797 83.74 27.9597 84.02C28.2397 84.3 28.3797 84.6467 28.3797 85.06C28.3797 85.4733 28.2397 85.82 27.9597 86.1C27.6797 86.38 27.3397 86.52 26.9397 86.52ZM28.0597 87.98V99H25.7797V87.98H28.0597ZM35.1531 99.18C34.2865 99.18 33.5065 99.0267 32.8131 98.72C32.1331 98.4 31.5931 97.9733 31.1931 97.44C30.7931 96.8933 30.5798 96.2867 30.5531 95.62H32.9131C32.9531 96.0867 33.1731 96.48 33.5731 96.8C33.9865 97.1067 34.4998 97.26 35.1131 97.26C35.7531 97.26 36.2465 97.14 36.5931 96.9C36.9531 96.6467 37.1331 96.3267 37.1331 95.94C37.1331 95.5267 36.9331 95.22 36.5331 95.02C36.1465 94.82 35.5265 94.6 34.6731 94.36C33.8465 94.1333 33.1731 93.9133 32.6531 93.7C32.1331 93.4867 31.6798 93.16 31.2931 92.72C30.9198 92.28 30.7331 91.7 30.7331 90.98C30.7331 90.3933 30.9065 89.86 31.2531 89.38C31.5998 88.8867 32.0931 88.5 32.7331 88.22C33.3865 87.94 34.1331 87.8 34.9731 87.8C36.2265 87.8 37.2331 88.12 37.9931 88.76C38.7665 89.3867 39.1798 90.2467 39.2331 91.34H36.9531C36.9131 90.8467 36.7131 90.4533 36.3531 90.16C35.9931 89.8667 35.5065 89.72 34.8931 89.72C34.2931 89.72 33.8331 89.8333 33.5131 90.06C33.1931 90.2867 33.0331 90.5867 33.0331 90.96C33.0331 91.2533 33.1398 91.5 33.3531 91.7C33.5665 91.9 33.8265 92.06 34.1331 92.18C34.4398 92.2867 34.8931 92.4267 35.4931 92.6C36.2931 92.8133 36.9465 93.0333 37.4531 93.26C37.9731 93.4733 38.4198 93.7933 38.7931 94.22C39.1665 94.6467 39.3598 95.2133 39.3731 95.92C39.3731 96.5467 39.1998 97.1067 38.8531 97.6C38.5065 98.0933 38.0131 98.48 37.3731 98.76C36.7465 99.04 36.0065 99.18 35.1531 99.18ZM41.1767 93.48C41.1767 92.3467 41.4034 91.3533 41.8567 90.5C42.3234 89.6333 42.9634 88.9667 43.7767 88.5C44.5901 88.0333 45.5234 87.8 46.5767 87.8C47.9101 87.8 49.0101 88.12 49.8767 88.76C50.7567 89.3867 51.3501 90.2867 51.6567 91.46H49.1967C48.9967 90.9133 48.6767 90.4867 48.2367 90.18C47.7967 89.8733 47.2434 89.72 46.5767 89.72C45.6434 89.72 44.8967 90.0533 44.3367 90.72C43.7901 91.3733 43.5167 92.2933 43.5167 93.48C43.5167 94.6667 43.7901 95.5933 44.3367 96.26C44.8967 96.9267 45.6434 97.26 46.5767 97.26C47.8967 97.26 48.7701 96.68 49.1967 95.52H51.6567C51.3367 96.64 50.7367 97.5333 49.8567 98.2C48.9767 98.8533 47.8834 99.18 46.5767 99.18C45.5234 99.18 44.5901 98.9467 43.7767 98.48C42.9634 98 42.3234 97.3333 41.8567 96.48C41.4034 95.6133 41.1767 94.6133 41.1767 93.48ZM58.8089 99.18C57.7689 99.18 56.8289 98.9467 55.9889 98.48C55.1489 98 54.4889 97.3333 54.0089 96.48C53.5289 95.6133 53.2889 94.6133 53.2889 93.48C53.2889 92.36 53.5356 91.3667 54.0289 90.5C54.5222 89.6333 55.1956 88.9667 56.0489 88.5C56.9022 88.0333 57.8556 87.8 58.9089 87.8C59.9622 87.8 60.9156 88.0333 61.7689 88.5C62.6222 88.9667 63.2956 89.6333 63.7889 90.5C64.2822 91.3667 64.5289 92.36 64.5289 93.48C64.5289 94.6 64.2756 95.5933 63.7689 96.46C63.2622 97.3267 62.5689 98 61.6889 98.48C60.8222 98.9467 59.8622 99.18 58.8089 99.18ZM58.8089 97.2C59.3956 97.2 59.9422 97.06 60.4489 96.78C60.9689 96.5 61.3889 96.08 61.7089 95.52C62.0289 94.96 62.1889 94.28 62.1889 93.48C62.1889 92.68 62.0356 92.0067 61.7289 91.46C61.4222 90.9 61.0156 90.48 60.5089 90.2C60.0022 89.92 59.4556 89.78 58.8689 89.78C58.2822 89.78 57.7356 89.92 57.2289 90.2C56.7356 90.48 56.3422 90.9 56.0489 91.46C55.7556 92.0067 55.6089 92.68 55.6089 93.48C55.6089 94.6667 55.9089 95.5867 56.5089 96.24C57.1222 96.88 57.8889 97.2 58.8089 97.2ZM71.1428 96.96L74.2628 87.98H76.6828L72.4828 99H69.7628L65.5828 87.98H68.0228L71.1428 96.96ZM88.6062 93.22C88.6062 93.6333 88.5796 94.0067 88.5262 94.34H80.1062C80.1729 95.22 80.4996 95.9267 81.0862 96.46C81.6729 96.9933 82.3929 97.26 83.2462 97.26C84.4729 97.26 85.3396 96.7467 85.8462 95.72H88.3062C87.9729 96.7333 87.3662 97.5667 86.4862 98.22C85.6196 98.86 84.5396 99.18 83.2462 99.18C82.1929 99.18 81.2462 98.9467 80.4062 98.48C79.5796 98 78.9262 97.3333 78.4462 96.48C77.9796 95.6133 77.7462 94.6133 77.7462 93.48C77.7462 92.3467 77.9729 91.3533 78.4262 90.5C78.8929 89.6333 79.5396 88.9667 80.3662 88.5C81.2062 88.0333 82.1662 87.8 83.2462 87.8C84.2862 87.8 85.2129 88.0267 86.0262 88.48C86.8396 88.9333 87.4729 89.5733 87.9262 90.4C88.3796 91.2133 88.6062 92.1533 88.6062 93.22ZM86.2262 92.5C86.2129 91.66 85.9129 90.9867 85.3262 90.48C84.7396 89.9733 84.0129 89.72 83.1462 89.72C82.3596 89.72 81.6862 89.9733 81.1262 90.48C80.5662 90.9733 80.2329 91.6467 80.1262 92.5H86.2262ZM93.23 89.58C93.5633 89.02 94.0033 88.5867 94.55 88.28C95.11 87.96 95.77 87.8 96.53 87.8V90.16H95.95C95.0567 90.16 94.3767 90.3867 93.91 90.84C93.4567 91.2933 93.23 92.08 93.23 93.2V99H90.95V87.98H93.23V89.58ZM108.801 99.18C107.761 99.18 106.821 98.9467 105.981 98.48C105.141 98 104.481 97.3333 104.001 96.48C103.521 95.6133 103.281 94.6133 103.281 93.48C103.281 92.36 103.528 91.3667 104.021 90.5C104.514 89.6333 105.188 88.9667 106.041 88.5C106.894 88.0333 107.848 87.8 108.901 87.8C109.954 87.8 110.908 88.0333 111.761 88.5C112.614 88.9667 113.288 89.6333 113.781 90.5C114.274 91.3667 114.521 92.36 114.521 93.48C114.521 94.6 114.268 95.5933 113.761 96.46C113.254 97.3267 112.561 98 111.681 98.48C110.814 98.9467 109.854 99.18 108.801 99.18ZM108.801 97.2C109.388 97.2 109.934 97.06 110.441 96.78C110.961 96.5 111.381 96.08 111.701 95.52C112.021 94.96 112.181 94.28 112.181 93.48C112.181 92.68 112.028 92.0067 111.721 91.46C111.414 90.9 111.008 90.48 110.501 90.2C109.994 89.92 109.448 89.78 108.861 89.78C108.274 89.78 107.728 89.92 107.221 90.2C106.728 90.48 106.334 90.9 106.041 91.46C105.748 92.0067 105.601 92.68 105.601 93.48C105.601 94.6667 105.901 95.5867 106.501 96.24C107.114 96.88 107.881 97.2 108.801 97.2ZM126.855 87.98V99H124.575V97.7C124.215 98.1533 123.742 98.5133 123.155 98.78C122.582 99.0333 121.968 99.16 121.315 99.16C120.448 99.16 119.668 98.98 118.975 98.62C118.295 98.26 117.755 97.7267 117.355 97.02C116.968 96.3133 116.775 95.46 116.775 94.46V87.98H119.035V94.12C119.035 95.1067 119.282 95.8667 119.775 96.4C120.268 96.92 120.942 97.18 121.795 97.18C122.648 97.18 123.322 96.92 123.815 96.4C124.322 95.8667 124.575 95.1067 124.575 94.12V87.98H126.855ZM132.243 89.58C132.577 89.02 133.017 88.5867 133.563 88.28C134.123 87.96 134.783 87.8 135.543 87.8V90.16H134.963C134.07 90.16 133.39 90.3867 132.923 90.84C132.47 91.2933 132.243 92.08 132.243 93.2V99H129.963V87.98H132.243V89.58ZM142.274 93.44C142.274 92.3333 142.501 91.3533 142.954 90.5C143.421 89.6467 144.048 88.9867 144.834 88.52C145.634 88.04 146.514 87.8 147.474 87.8C148.341 87.8 149.094 87.9733 149.734 88.32C150.388 88.6533 150.908 89.0733 151.294 89.58V87.98H153.594V99H151.294V97.36C150.908 97.88 150.381 98.3133 149.714 98.66C149.048 99.0067 148.288 99.18 147.434 99.18C146.488 99.18 145.621 98.94 144.834 98.46C144.048 97.9667 143.421 97.2867 142.954 96.42C142.501 95.54 142.274 94.5467 142.274 93.44ZM151.294 93.48C151.294 92.72 151.134 92.06 150.814 91.5C150.508 90.94 150.101 90.5133 149.594 90.22C149.088 89.9267 148.541 89.78 147.954 89.78C147.368 89.78 146.821 89.9267 146.314 90.22C145.808 90.5 145.394 90.92 145.074 91.48C144.768 92.0267 144.614 92.68 144.614 93.44C144.614 94.2 144.768 94.8667 145.074 95.44C145.394 96.0133 145.808 96.4533 146.314 96.76C146.834 97.0533 147.381 97.2 147.954 97.2C148.541 97.2 149.088 97.0533 149.594 96.76C150.101 96.4667 150.508 96.04 150.814 95.48C151.134 94.9067 151.294 94.24 151.294 93.48ZM158.969 89.6C159.356 89.0933 159.882 88.6667 160.549 88.32C161.216 87.9733 161.969 87.8 162.809 87.8C163.769 87.8 164.642 88.04 165.429 88.52C166.229 88.9867 166.856 89.6467 167.309 90.5C167.762 91.3533 167.989 92.3333 167.989 93.44C167.989 94.5467 167.762 95.54 167.309 96.42C166.856 97.2867 166.229 97.9667 165.429 98.46C164.642 98.94 163.769 99.18 162.809 99.18C161.969 99.18 161.222 99.0133 160.569 98.68C159.916 98.3333 159.382 97.9067 158.969 97.4V104.24H156.689V87.98H158.969V89.6ZM165.669 93.44C165.669 92.68 165.509 92.0267 165.189 91.48C164.882 90.92 164.469 90.5 163.949 90.22C163.442 89.9267 162.896 89.78 162.309 89.78C161.736 89.78 161.189 89.9267 160.669 90.22C160.162 90.5133 159.749 90.94 159.429 91.5C159.122 92.06 158.969 92.72 158.969 93.48C158.969 94.24 159.122 94.9067 159.429 95.48C159.749 96.04 160.162 96.4667 160.669 96.76C161.189 97.0533 161.736 97.2 162.309 97.2C162.896 97.2 163.442 97.0533 163.949 96.76C164.469 96.4533 164.882 96.0133 165.189 95.44C165.509 94.8667 165.669 94.2 165.669 93.44ZM172.624 89.6C173.01 89.0933 173.537 88.6667 174.204 88.32C174.87 87.9733 175.624 87.8 176.464 87.8C177.424 87.8 178.297 88.04 179.084 88.52C179.884 88.9867 180.51 89.6467 180.964 90.5C181.417 91.3533 181.644 92.3333 181.644 93.44C181.644 94.5467 181.417 95.54 180.964 96.42C180.51 97.2867 179.884 97.9667 179.084 98.46C178.297 98.94 177.424 99.18 176.464 99.18C175.624 99.18 174.877 99.0133 174.224 98.68C173.57 98.3333 173.037 97.9067 172.624 97.4V104.24H170.344V87.98H172.624V89.6ZM179.324 93.44C179.324 92.68 179.164 92.0267 178.844 91.48C178.537 90.92 178.124 90.5 177.604 90.22C177.097 89.9267 176.55 89.78 175.964 89.78C175.39 89.78 174.844 89.9267 174.324 90.22C173.817 90.5133 173.404 90.94 173.084 91.5C172.777 92.06 172.624 92.72 172.624 93.48C172.624 94.24 172.777 94.9067 173.084 95.48C173.404 96.04 173.817 96.4667 174.324 96.76C174.844 97.0533 175.39 97.2 175.964 97.2C176.55 97.2 177.097 97.0533 177.604 96.76C178.124 96.4533 178.537 96.0133 178.844 95.44C179.164 94.8667 179.324 94.2 179.324 93.44Z" fill="#5E6282"/>
<rect x="8" y="120" width="107" height="35" rx="17.5" fill="#080809"/>
<g clip-path="url(#clip1_108_80)">
<path d="M36.5073 137.002L26.4638 146.673C25.9935 146.352 25.7142 145.817 25.7192 145.247V128.756C25.7142 128.187 25.9935 127.652 26.4638 127.331L36.5073 137.002Z" fill="#2196F3"/>
<path d="M40.0217 133.624L36.5074 137.002L26.4639 127.331C26.5017 127.301 26.5411 127.274 26.5819 127.249C27.1127 126.927 27.7757 126.917 28.3164 127.222L40.0217 133.624Z" fill="#4CAF50"/>
<path d="M44.2806 137.002C44.2872 137.645 43.9377 138.239 43.3725 138.545L40.0217 140.38L36.5073 137.002L40.0217 133.624L43.3725 135.458C43.9377 135.765 44.2872 136.359 44.2806 137.002Z" fill="#F0BB1F"/>
<path d="M40.0217 140.38L28.3164 146.782C27.7745 147.082 27.114 147.072 26.5819 146.755C26.5411 146.73 26.5017 146.703 26.4639 146.673L36.5074 137.002L40.0217 140.38Z" fill="#F15A2B"/>
</g>
<path d="M56.024 131.88H53.216V133H54.712C54.512 133.536 54.024 133.864 53.28 133.864C52.192 133.864 51.52 133.168 51.52 132.216C51.52 131.232 52.224 130.536 53.168 130.536C53.8 130.536 54.304 130.824 54.536 131.192L55.624 130.568C55.152 129.816 54.248 129.288 53.176 129.288C51.528 129.288 50.24 130.584 50.24 132.208C50.24 133.816 51.504 135.112 53.264 135.112C54.832 135.112 56.024 134.072 56.024 132.36V131.88Z" fill="white"/>
<path d="M57.6256 133.768V132.776H59.6256V131.56H57.6256V130.632H59.8256V129.4H56.3456V135H59.8656V133.768H57.6256Z" fill="white"/>
<path d="M63.9478 129.4H59.7878V130.632H61.2278V135H62.5078V130.632H63.9478V129.4Z" fill="white"/>
<path d="M65.7081 129.4V135H66.9881V129.4H65.7081Z" fill="white"/>
<path d="M71.3103 129.4H67.1503V130.632H68.5903V135H69.8703V130.632H71.3103V129.4Z" fill="white"/>
<path d="M75.7426 135.112C77.3506 135.112 78.6546 133.848 78.6546 132.2C78.6546 130.552 77.3506 129.288 75.7426 129.288C74.1346 129.288 72.8306 130.552 72.8306 132.2C72.8306 133.848 74.1346 135.112 75.7426 135.112ZM75.7426 133.864C74.8306 133.864 74.1106 133.2 74.1106 132.2C74.1106 131.2 74.8306 130.536 75.7426 130.536C76.6546 130.536 77.3746 131.2 77.3746 132.2C77.3746 133.2 76.6546 133.864 75.7426 133.864Z" fill="white"/>
<path d="M82.0953 129.4V132.44L79.9353 129.4H78.9753V135H80.2553V131.96L82.4153 135H83.3753V129.4H82.0953Z" fill="white"/>
<path d="M56.024 141.392V141.608C56.024 142.307 55.776 142.896 55.28 143.376C54.784 143.851 54.1307 144.088 53.32 144.088C52.4667 144.088 51.7627 143.811 51.208 143.256C50.6533 142.696 50.376 142.011 50.376 141.2C50.376 140.389 50.6507 139.707 51.2 139.152C51.7493 138.592 52.4453 138.312 53.288 138.312C53.8 138.312 54.2693 138.435 54.696 138.68C55.128 138.925 55.4613 139.253 55.696 139.664L55.32 139.888C55.1333 139.536 54.856 139.253 54.488 139.04C54.1253 138.827 53.7253 138.72 53.288 138.72C52.5627 138.72 51.9653 138.96 51.496 139.44C51.032 139.915 50.8 140.501 50.8 141.2C50.8 141.899 51.0347 142.488 51.504 142.968C51.9733 143.443 52.5787 143.68 53.32 143.68C53.976 143.68 54.5067 143.501 54.912 143.144C55.3173 142.787 55.544 142.336 55.592 141.792H53.216V141.392H56.024Z" fill="white"/>
<path d="M61.7026 143.248C61.1426 143.808 60.4599 144.088 59.6546 144.088C58.8493 144.088 58.1666 143.808 57.6066 143.248C57.0466 142.683 56.7666 142 56.7666 141.2C56.7666 140.4 57.0466 139.72 57.6066 139.16C58.1666 138.595 58.8493 138.312 59.6546 138.312C60.4599 138.312 61.1426 138.595 61.7026 139.16C62.2626 139.72 62.5426 140.4 62.5426 141.2C62.5426 142 62.2626 142.683 61.7026 143.248ZM57.9026 142.96C58.3826 143.44 58.9666 143.68 59.6546 143.68C60.3426 143.68 60.9239 143.44 61.3986 142.96C61.8786 142.475 62.1186 141.888 62.1186 141.2C62.1186 140.512 61.8786 139.928 61.3986 139.448C60.9239 138.963 60.3426 138.72 59.6546 138.72C58.9666 138.72 58.3826 138.963 57.9026 139.448C57.4279 139.928 57.1906 140.512 57.1906 141.2C57.1906 141.888 57.4279 142.475 57.9026 142.96Z" fill="white"/>
<path d="M68.2339 143.248C67.6739 143.808 66.9912 144.088 66.1859 144.088C65.3805 144.088 64.6979 143.808 64.1379 143.248C63.5779 142.683 63.2979 142 63.2979 141.2C63.2979 140.4 63.5779 139.72 64.1379 139.16C64.6979 138.595 65.3805 138.312 66.1859 138.312C66.9912 138.312 67.6739 138.595 68.2339 139.16C68.7939 139.72 69.0739 140.4 69.0739 141.2C69.0739 142 68.7939 142.683 68.2339 143.248ZM64.4339 142.96C64.9139 143.44 65.4979 143.68 66.1859 143.68C66.8739 143.68 67.4552 143.44 67.9299 142.96C68.4099 142.475 68.6499 141.888 68.6499 141.2C68.6499 140.512 68.4099 139.928 67.9299 139.448C67.4552 138.963 66.8739 138.72 66.1859 138.72C65.4979 138.72 64.9139 138.963 64.4339 139.448C63.9592 139.928 63.7219 140.512 63.7219 141.2C63.7219 141.888 63.9592 142.475 64.4339 142.96Z" fill="white"/>
<path d="M75.4771 141.392V141.608C75.4771 142.307 75.2291 142.896 74.7331 143.376C74.2371 143.851 73.5838 144.088 72.7731 144.088C71.9198 144.088 71.2158 143.811 70.6611 143.256C70.1064 142.696 69.8291 142.011 69.8291 141.2C69.8291 140.389 70.1038 139.707 70.6531 139.152C71.2024 138.592 71.8984 138.312 72.7411 138.312C73.2531 138.312 73.7224 138.435 74.1491 138.68C74.5811 138.925 74.9144 139.253 75.1491 139.664L74.7731 139.888C74.5864 139.536 74.3091 139.253 73.9411 139.04C73.5784 138.827 73.1784 138.72 72.7411 138.72C72.0158 138.72 71.4184 138.96 70.9491 139.44C70.4851 139.915 70.2531 140.501 70.2531 141.2C70.2531 141.899 70.4878 142.488 70.9571 142.968C71.4264 143.443 72.0318 143.68 72.7731 143.68C73.4291 143.68 73.9598 143.501 74.3651 143.144C74.7705 142.787 74.9971 142.336 75.0451 141.792H72.6691V141.392H75.4771Z" fill="white"/>
<path d="M76.9637 143.6H79.6037V144H76.5397V138.4H76.9637V143.6Z" fill="white"/>
<path d="M80.9091 143.6H83.7091V144H80.4851V138.4H83.6691V138.8H80.9091V140.976H83.4691V141.376H80.9091V143.6Z" fill="white"/>
<path d="M88.7875 138.4C89.2888 138.4 89.7048 138.565 90.0355 138.896C90.3662 139.227 90.5315 139.64 90.5315 140.136C90.5315 140.632 90.3662 141.045 90.0355 141.376C89.7048 141.701 89.2888 141.864 88.7875 141.864H87.3075V144H86.8835V138.4H88.7875ZM88.7875 141.464C89.1715 141.464 89.4862 141.339 89.7315 141.088C89.9822 140.837 90.1075 140.52 90.1075 140.136C90.1075 139.747 89.9822 139.427 89.7315 139.176C89.4862 138.925 89.1715 138.8 88.7875 138.8H87.3075V141.464H88.7875Z" fill="white"/>
<path d="M92.0028 143.6H94.6428V144H91.5788V138.4H92.0028V143.6Z" fill="white"/>
<path d="M99.4484 144L98.9044 142.576H96.0964L95.5524 144H95.1044L97.2804 138.4H97.7284L99.8964 144H99.4484ZM96.2564 142.176H98.7524L97.5044 138.92L96.2564 142.176Z" fill="white"/>
<path d="M103.881 138.4L101.841 141.696V144H101.417V141.696L99.3769 138.4H99.8569L101.633 141.288L103.401 138.4H103.881Z" fill="white"/>
<rect x="122" y="120" width="100" height="35" rx="17.5" fill="#080809"/>
<path d="M143.789 144C141.408 143.986 139.438 139.125 139.438 136.65C139.438 132.606 142.472 131.72 143.641 131.72C144.168 131.72 144.73 131.927 145.227 132.11C145.574 132.238 145.933 132.37 146.132 132.37C146.252 132.37 146.533 132.258 146.782 132.159C147.312 131.948 147.971 131.686 148.74 131.686C148.741 131.686 148.743 131.686 148.744 131.686C149.318 131.686 151.057 131.812 152.102 133.382L152.347 133.75L151.995 134.016C151.491 134.396 150.572 135.089 150.572 136.462C150.572 138.088 151.613 138.713 152.113 139.014C152.333 139.147 152.562 139.284 152.562 139.583C152.562 139.778 151.002 143.976 148.736 143.976C148.182 143.976 147.79 143.809 147.444 143.662C147.095 143.513 146.793 143.385 146.295 143.385C146.042 143.385 145.722 143.505 145.384 143.631C144.922 143.804 144.399 144 143.805 144H143.789Z" fill="white"/>
<path d="M148.98 128C149.039 130.127 147.517 131.603 145.997 131.511C145.747 129.813 147.517 128 148.98 128Z" fill="white"/>
<path d="M161.03 133H162.08L160.652 128.8H159.428L158 133H159.05L159.26 132.34H160.82L161.03 133ZM159.548 131.44L160.04 129.898L160.532 131.44H159.548Z" fill="white"/>
<path d="M164.205 130L163.581 131.902L162.957 130H161.961L163.071 133H164.091L165.201 130H164.205Z" fill="white"/>
<path d="M167.592 130V130.282C167.394 130.054 167.1 129.916 166.698 129.916C165.912 129.916 165.264 130.606 165.264 131.5C165.264 132.394 165.912 133.084 166.698 133.084C167.1 133.084 167.394 132.946 167.592 132.718V133H168.492V130H167.592ZM166.878 132.232C166.464 132.232 166.164 131.95 166.164 131.5C166.164 131.05 166.464 130.768 166.878 130.768C167.292 130.768 167.592 131.05 167.592 131.5C167.592 131.95 167.292 132.232 166.878 132.232Z" fill="white"/>
<path d="M169.152 133H170.052V128.62H169.152V133Z" fill="white"/>
<path d="M171.161 129.736C171.455 129.736 171.701 129.49 171.701 129.196C171.701 128.902 171.455 128.656 171.161 128.656C170.867 128.656 170.621 128.902 170.621 129.196C170.621 129.49 170.867 129.736 171.161 129.736ZM170.711 133H171.611V130H170.711V133Z" fill="white"/>
<path d="M174.063 129.916C173.661 129.916 173.367 130.054 173.169 130.282V128.8H172.269V133H173.169V132.718C173.367 132.946 173.661 133.084 174.063 133.084C174.849 133.084 175.497 132.394 175.497 131.5C175.497 130.606 174.849 129.916 174.063 129.916ZM173.883 132.232C173.469 132.232 173.169 131.95 173.169 131.5C173.169 131.05 173.469 130.768 173.883 130.768C174.297 130.768 174.597 131.05 174.597 131.5C174.597 131.95 174.297 132.232 173.883 132.232Z" fill="white"/>
<path d="M176.008 133H176.908V128.62H176.008V133Z" fill="white"/>
<path d="M178.37 131.86H180.5C180.524 131.746 180.536 131.626 180.536 131.5C180.536 130.594 179.888 129.916 179.012 129.916C178.064 129.916 177.416 130.606 177.416 131.5C177.416 132.394 178.052 133.084 179.078 133.084C179.648 133.084 180.092 132.874 180.386 132.466L179.666 132.052C179.546 132.184 179.336 132.28 179.09 132.28C178.76 132.28 178.484 132.172 178.37 131.86ZM178.352 131.188C178.436 130.882 178.664 130.714 179.006 130.714C179.276 130.714 179.546 130.84 179.642 131.188H178.352Z" fill="white"/>
<path d="M183.987 133.084C184.869 133.084 185.577 132.394 185.577 131.5C185.577 130.606 184.869 129.916 183.987 129.916C183.105 129.916 182.397 130.606 182.397 131.5C182.397 132.394 183.105 133.084 183.987 133.084ZM183.987 132.208C183.597 132.208 183.297 131.926 183.297 131.5C183.297 131.074 183.597 130.792 183.987 130.792C184.377 130.792 184.677 131.074 184.677 131.5C184.677 131.926 184.377 132.208 183.987 132.208Z" fill="white"/>
<path d="M187.844 129.916C187.448 129.916 187.148 130.06 186.986 130.282V130H186.086V133H186.986V131.362C186.986 130.936 187.214 130.744 187.544 130.744C187.832 130.744 188.066 130.918 188.066 131.29V133H188.966V131.158C188.966 130.348 188.45 129.916 187.844 129.916Z" fill="white"/>
<path d="M192.842 130.864V130H192.224V129.16L191.324 129.43V130H190.844V130.864H191.324V131.926C191.324 132.766 191.666 133.12 192.842 133V132.184C192.446 132.208 192.224 132.184 192.224 131.926V130.864H192.842Z" fill="white"/>
<path d="M195.109 129.916C194.713 129.916 194.413 130.06 194.251 130.282V128.8H193.351V133H194.251V131.362C194.251 130.936 194.479 130.744 194.809 130.744C195.097 130.744 195.331 130.918 195.331 131.29V133H196.231V131.158C196.231 130.348 195.715 129.916 195.109 129.916Z" fill="white"/>
<path d="M197.654 131.86H199.784C199.808 131.746 199.82 131.626 199.82 131.5C199.82 130.594 199.172 129.916 198.296 129.916C197.348 129.916 196.7 130.606 196.7 131.5C196.7 132.394 197.336 133.084 198.362 133.084C198.932 133.084 199.376 132.874 199.67 132.466L198.95 132.052C198.83 132.184 198.62 132.28 198.374 132.28C198.044 132.28 197.768 132.172 197.654 131.86ZM197.636 131.188C197.72 130.882 197.948 130.714 198.29 130.714C198.56 130.714 198.83 130.84 198.926 131.188H197.636Z" fill="white"/>
<path d="M163.05 144H164.8L162.42 137H160.38L158 144H159.75L160.1 142.9H162.7L163.05 144ZM160.58 141.4L161.4 138.83L162.22 141.4H160.58Z" fill="white"/>
<path d="M168.337 138.86C167.667 138.86 167.177 139.09 166.847 139.47V139H165.347V146H166.847V143.53C167.177 143.91 167.667 144.14 168.337 144.14C169.647 144.14 170.727 142.99 170.727 141.5C170.727 140.01 169.647 138.86 168.337 138.86ZM168.037 142.72C167.347 142.72 166.847 142.25 166.847 141.5C166.847 140.75 167.347 140.28 168.037 140.28C168.727 140.28 169.227 140.75 169.227 141.5C169.227 142.25 168.727 142.72 168.037 142.72Z" fill="white"/>
<path d="M174.567 138.86C173.897 138.86 173.407 139.09 173.077 139.47V139H171.577V146H173.077V143.53C173.407 143.91 173.897 144.14 174.567 144.14C175.877 144.14 176.957 142.99 176.957 141.5C176.957 140.01 175.877 138.86 174.567 138.86ZM174.267 142.72C173.577 142.72 173.077 142.25 173.077 141.5C173.077 140.75 173.577 140.28 174.267 140.28C174.957 140.28 175.457 140.75 175.457 141.5C175.457 142.25 174.957 142.72 174.267 142.72Z" fill="white"/>
<path d="M177.808 144H179.308V136.7H177.808V144Z" fill="white"/>
<path d="M181.745 142.1H185.295C185.335 141.91 185.355 141.71 185.355 141.5C185.355 139.99 184.275 138.86 182.815 138.86C181.235 138.86 180.155 140.01 180.155 141.5C180.155 142.99 181.215 144.14 182.925 144.14C183.875 144.14 184.615 143.79 185.105 143.11L183.905 142.42C183.705 142.64 183.355 142.8 182.945 142.8C182.395 142.8 181.935 142.62 181.745 142.1ZM181.715 140.98C181.855 140.47 182.235 140.19 182.805 140.19C183.255 140.19 183.705 140.4 183.865 140.98H181.715Z" fill="white"/>
<path d="M191.206 144.14C192.726 144.14 193.806 143.34 193.806 141.99C193.806 140.51 192.616 140.14 191.556 139.82C190.466 139.49 190.296 139.27 190.296 138.95C190.296 138.67 190.546 138.42 191.046 138.42C191.686 138.42 192.016 138.73 192.256 139.23L193.606 138.44C193.096 137.41 192.196 136.86 191.046 136.86C189.836 136.86 188.696 137.64 188.696 138.99C188.696 140.33 189.716 140.83 190.756 141.12C191.806 141.41 192.206 141.58 192.206 142.01C192.206 142.28 192.016 142.58 191.256 142.58C190.466 142.58 190.036 142.19 189.786 141.61L188.406 142.41C188.796 143.44 189.736 144.14 191.206 144.14Z" fill="white"/>
<path d="M197.339 140.44V139H196.309V137.6L194.809 138.05V139H194.009V140.44H194.809V142.21C194.809 143.61 195.379 144.2 197.339 144V142.64C196.679 142.68 196.309 142.64 196.309 142.21V140.44H197.339Z" fill="white"/>
<path d="M200.491 144.14C201.961 144.14 203.141 142.99 203.141 141.5C203.141 140.01 201.961 138.86 200.491 138.86C199.021 138.86 197.841 140.01 197.841 141.5C197.841 142.99 199.021 144.14 200.491 144.14ZM200.491 142.68C199.841 142.68 199.341 142.21 199.341 141.5C199.341 140.79 199.841 140.32 200.491 140.32C201.141 140.32 201.641 140.79 201.641 141.5C201.641 142.21 201.141 142.68 200.491 142.68Z" fill="white"/>
<path d="M205.489 139.89V139H203.989V144H205.489V141.74C205.489 140.75 206.369 140.5 206.989 140.6V138.9C206.359 138.9 205.689 139.22 205.489 139.89Z" fill="white"/>
<path d="M208.884 142.1H212.434C212.474 141.91 212.494 141.71 212.494 141.5C212.494 139.99 211.414 138.86 209.954 138.86C208.374 138.86 207.294 140.01 207.294 141.5C207.294 142.99 208.354 144.14 210.064 144.14C211.014 144.14 211.754 143.79 212.244 143.11L211.044 142.42C210.844 142.64 210.494 142.8 210.084 142.8C209.534 142.8 209.074 142.62 208.884 142.1ZM208.854 140.98C208.994 140.47 209.374 140.19 209.944 140.19C210.394 140.19 210.844 140.4 211.004 140.98H208.854Z" fill="white"/>
<defs>
<filter id="filter0_d_108_80" x="136" y="2" width="61" height="61" filterUnits="userSpaceOnUse" color-interpolation-filters="sRGB">
<feFlood flood-opacity="0" result="BackgroundImageFix"/>
<feColorMatrix in="SourceAlpha" type="matrix" values="0 0 0 0 0 0 0 0 0 0 0 0 0 0 0 0 0 0 127 0" result="hardAlpha"/>
<feOffset dy="2"/>
<feGaussianBlur stdDeviation="5"/>
<feColorMatrix type="matrix" values="0 0 0 0 0 0 0 0 0 0 0 0 0 0 0 0 0 0 0.1 0"/>
<feBlend mode="normal" in2="BackgroundImageFix" result="effect1_dropShadow_108_80"/>
<feBlend mode="normal" in="SourceGraphic" in2="effect1_dropShadow_108_80" result="shape"/>
</filter>
<filter id="filter1_d_108_80" x="0" y="0" width="61" height="61" filterUnits="userSpaceOnUse" color-interpolation-filters="sRGB">
<feFlood flood-opacity="0" result="BackgroundImageFix"/>
<feColorMatrix in="SourceAlpha" type="matrix" values="0 0 0 0 0 0 0 0 0 0 0 0 0 0 0 0 0 0 127 0" result="hardAlpha"/>
<feOffset dy="2"/>
<feGaussianBlur stdDeviation="5"/>
<feColorMatrix type="matrix" values="0 0 0 0 0 0 0 0 0 0 0 0 0 0 0 0 0 0 0.1 0"/>
<feBlend mode="normal" in2="BackgroundImageFix" result="effect1_dropShadow_108_80"/>
<feBlend mode="normal" in="SourceGraphic" in2="effect1_dropShadow_108_80" result="shape"/>
</filter>
<filter id="filter2_d_108_80" x="66" y="0" width="65" height="65" filterUnits="userSpaceOnUse" color-interpolation-filters="sRGB">
<feFlood flood-opacity="0" result="BackgroundImageFix"/>
<feColorMatrix in="SourceAlpha" type="matrix" values="0 0 0 0 0 0 0 0 0 0 0 0 0 0 0 0 0 0 127 0" result="hardAlpha"/>
<feOffset dy="2"/>
<feGaussianBlur stdDeviation="5"/>
<feColorMatrix type="matrix" values="0 0 0 0 0 0 0 0 0 0 0 0 0 0 0 0 0 0 0.1 0"/>
<feBlend mode="normal" in2="BackgroundImageFix" result="effect1_dropShadow_108_80"/>
<feBlend mode="normal" in="SourceGraphic" in2="effect1_dropShadow_108_80" result="shape"/>
</filter>
<radialGradient id="paint0_angular_108_80" cx="0" cy="0" r="1" gradientUnits="userSpaceOnUse" gradientTransform="translate(98.5 30.5) rotate(90) scale(0.5)">
<stop stop-color="#B8D2F1"/>
<stop offset="0.166667" stop-color="#F289AA"/>
<stop offset="0.294697" stop-color="#C68BF0"/>
<stop offset="0.427083" stop-color="#D164DA"/>
<stop offset="0.614583" stop-color="#C963E8"/>
<stop offset="0.71875" stop-color="#BFC2E8"/>
<stop offset="0.802083" stop-color="#FFC999"/>
<stop offset="0.875" stop-color="#D0D8C9"/>
<stop offset="0.928149" stop-color="#BAD0F1"/>
<stop offset="0.997133" stop-color="#CED8CB"/>
<stop offset="1" stop-color="white" stop-opacity="0"/>
</radialGradient>
<clipPath id="clip0_108_80">
<rect width="16" height="16" fill="white" transform="translate(91 22)"/>
</clipPath>
<clipPath id="clip1_108_80">
<rect width="20" height="20" fill="white" transform="translate(25 127)"/>
</clipPath>
</defs>
</svg>
